<svg width="20" height="34" viewBox="0 0 20 34" fill="none" xmlns="http://www.w3.org/2000/svg">
<path d="M19.1015 14.8196L4.10081 0.650576C3.59086 0.172461 2.93454 -0.0571197 2.27557 0.0121084C1.61659 0.0813364 1.00868 0.443732 0.584943 1.01993C0.161208 1.59614 -0.0438129 2.33919 0.0147773 3.08637C0.0733674 3.83355 0.390793 4.52397 0.897544 5.00643L13.5934 16.9977L0.897544 28.9889C0.38884 29.4707 0.0696603 30.1616 0.0101177 30.91C-0.0494248 31.6583 0.15554 32.4029 0.579987 32.9801C1.00443 33.5572 1.61365 33.9198 2.27381 33.9882C2.93397 34.0566 3.59109 33.8252 4.10081 33.3448L19.1015 19.1755C19.3828 18.9091 19.609 18.576 19.7643 18.1997C19.9195 17.8234 20 17.413 20 16.9976C20 16.5821 19.9195 16.1717 19.7643 15.7954C19.609 15.4191 19.3828 15.086 19.1015 14.8196Z" fill="white"/>
</svg>
