<svg width="65" height="35" viewBox="0 0 65 35" fill="none" xmlns="http://www.w3.org/2000/svg">
<path d="M63.7883 15.1817L46.3701 0.66647C45.778 0.176675 45.0159 -0.0585152 44.2507 0.0124042C43.4855 0.0833236 42.7796 0.454572 42.2876 1.04485C41.7956 1.63513 41.5575 2.39634 41.6256 3.16177C41.6936 3.92721 42.0622 4.63449 42.6506 5.12874L57.3926 17.4129L42.6506 29.6971C42.0599 30.1907 41.6893 30.8985 41.6201 31.6651C41.551 32.4318 41.789 33.1945 42.2819 33.7858C42.7747 34.3771 43.4821 34.7485 44.2487 34.8186C45.0152 34.8887 45.7782 34.6516 46.3701 34.1594L63.7883 19.644C64.1149 19.3711 64.3777 19.0299 64.5579 18.6443C64.7382 18.2588 64.8316 17.8384 64.8316 17.4128C64.8316 16.9872 64.7382 16.5668 64.5579 16.1813C64.3777 15.7958 64.1149 15.4546 63.7883 15.1817Z" fill="white"/>
<rect y="14.5145" width="62.8966" height="5.80584" rx="2.90292" fill="white"/>
</svg>
