<svg width="73" height="44" viewBox="0 0 73 44" fill="none" xmlns="http://www.w3.org/2000/svg">
<path d="M72.9994 21.9011C73.0017 33.9924 63.2244 43.7964 51.1574 43.7987C39.0928 43.8033 29.3096 34.0017 29.3062 21.9115V21.8999C29.3015 9.8063 39.0823 0.0034771 51.147 9.24339e-07C63.2117 -0.00347526 72.9959 9.79819 72.9994 21.8895C72.9994 21.8895 72.9994 21.8965 72.9994 21.9011Z" fill="#FFB600"/>
<path d="M51.147 0.00116059C63.2116 -0.00231559 72.9959 9.7982 72.9994 21.8907C72.9994 21.8907 72.9994 21.8976 72.9994 21.9023C73.0017 33.9936 63.2244 43.7976 51.1574 43.7999C39.0928 43.8045 29.3096 34.0028 29.3062 21.9127" fill="#F7981D"/>
<path d="M51.1475 0.00116059C63.2121 -0.00231559 72.9964 9.7982 72.9999 21.8907C72.9999 21.8907 72.9999 21.8976 72.9999 21.9023C73.0022 33.9936 63.2249 43.7976 51.1579 43.7999" fill="#FF8500"/>
<path d="M21.7076 0.00613403C9.71244 0.0837687 0 9.86226 0 21.9014C0 33.9881 9.78776 43.7967 21.8478 43.7967C27.5047 43.7967 32.6657 41.6334 36.5474 38.0912V38.0888H36.5497C37.3458 37.3635 38.0862 36.5802 38.7687 35.7447H34.2937C33.6958 35.024 33.1523 34.2697 32.6645 33.491H40.3839C40.8544 32.739 41.2773 31.9545 41.6585 31.1469H31.3899C31.0388 30.3949 30.7364 29.6267 30.478 28.848H42.5704C43.2993 26.6638 43.6944 24.329 43.6944 21.9037C43.6944 20.2931 43.5194 18.7254 43.1915 17.2144H29.8349C30.0017 16.4369 30.2092 15.6675 30.4583 14.9155H42.5554C42.2854 14.1113 41.9702 13.3303 41.6145 12.5702H31.3876C31.7561 11.7823 32.1755 11.0129 32.6413 10.2713H40.355C39.8417 9.45207 39.2727 8.66877 38.6609 7.92835H34.3586C35.0237 7.14389 35.7571 6.40462 36.5497 5.7175C32.668 2.17295 27.5082 0.0107697 21.8478 0.0107697C21.7991 0.0061348 21.7528 0.00613403 21.7076 0.00613403Z" fill="#FF5050"/>
<path d="M0 21.9009C0 33.9876 9.78776 43.7962 21.8478 43.7962C27.5047 43.7962 32.6657 41.6329 36.5474 38.0907V38.0884H36.5497C37.3458 37.363 38.0862 36.5797 38.7687 35.7443H34.2937C33.6958 35.0235 33.1523 34.2692 32.6645 33.4905H40.3839C40.8544 32.7385 41.2773 31.9541 41.6585 31.1464H31.3899C31.0388 30.3944 30.7364 29.6262 30.478 28.8475H42.5704C43.2993 26.6633 43.6944 24.3285 43.6944 21.9033C43.6944 20.2926 43.5194 18.7249 43.1915 17.2139H29.8349C30.0017 16.4364 30.2092 15.667 30.4583 14.915H42.5554C42.2854 14.1108 41.9702 13.3298 41.6145 12.5697H31.3876C31.7561 11.7818 32.1755 11.0124 32.6413 10.2708H40.355C39.8417 9.45159 39.2727 8.66829 38.6609 7.92786H34.3586C35.0237 7.1434 35.7571 6.40414 36.5497 5.71701C32.668 2.17247 27.5082 0.0102844 21.8478 0.0102844C21.7991 0.0102844 21.7528 0.0102844 21.7076 0.0102844" fill="#E52836"/>
<path d="M21.8477 43.7952C27.5046 43.7952 32.6656 41.6319 36.5473 38.0897V38.0874H36.5496C37.3457 37.362 38.0861 36.5787 38.7686 35.7432H34.2936C33.6957 35.0225 33.1523 34.2682 32.6644 33.4895H40.3839C40.8543 32.7375 41.2773 31.9531 41.6585 31.1454H31.3898C31.0387 30.3934 30.7363 29.6252 30.4779 28.8465H42.5704C43.2992 26.6623 43.6944 24.3275 43.6944 21.9023C43.6944 20.2916 43.5194 18.7239 43.1915 17.2129H29.8348C30.0017 16.4354 30.2091 15.666 30.4582 14.914H42.5553C42.2853 14.1098 41.9702 13.3288 41.6144 12.5687H31.3875C31.756 11.7808 32.1755 11.0114 32.6413 10.2698H40.3549C39.8416 9.45058 39.2727 8.66728 38.6609 7.92686H34.3585C35.0236 7.1424 35.7571 6.40313 36.5496 5.71601C32.6679 2.17146 27.5081 0.00927734 21.8477 0.00927734C21.7991 0.00927734 21.7527 0.00927734 21.7075 0.00927734" fill="#CB2026"/>
<path d="M29.7038 27.4757L29.9946 25.4943C29.8347 25.4943 29.6007 25.5627 29.3933 25.5627C28.5856 25.5627 28.4952 25.1305 28.5474 24.813L29.2009 20.7702H30.4315L30.7293 18.5767H29.5694L29.8069 17.2141H27.479C27.4281 17.265 26.106 24.879 26.106 25.806C26.106 27.1791 26.873 27.7909 27.9588 27.7816C28.8069 27.7724 29.4709 27.5371 29.7038 27.4757Z" fill="white"/>
<path d="M30.4409 23.6971C30.4409 26.9925 32.6101 27.7758 34.4594 27.7758C36.1662 27.7758 36.9147 27.3923 36.9147 27.3923L37.3261 25.1444C37.3261 25.1444 36.0271 25.7191 34.8545 25.7191C32.3575 25.7191 32.7955 23.8524 32.7955 23.8524H37.5231C37.5231 23.8524 37.829 22.3414 37.829 21.725C37.829 20.1896 37.0642 18.3195 34.5115 18.3195C32.1709 18.3171 30.4409 20.8432 30.4409 23.6971ZM34.5208 20.404C35.8325 20.404 35.5903 21.8825 35.5903 22.0019H33.0075C33.0063 21.8501 33.2497 20.404 34.5208 20.404Z" fill="white"/>
<path d="M49.2481 27.4757L49.664 24.9312C49.664 24.9312 48.5239 25.5082 47.7406 25.5082C46.0905 25.5082 45.4289 24.2429 45.4289 22.8883C45.4289 20.1352 46.8483 18.6196 48.4288 18.6196C49.6142 18.6196 50.5655 19.2882 50.5655 19.2882L50.9456 16.8189C50.9456 16.8189 49.5343 16.2465 48.3257 16.2465C45.6398 16.2465 43.0269 18.5802 43.0269 22.966C43.0269 25.8721 44.4393 27.7932 47.2133 27.7932C47.999 27.7932 49.2481 27.4757 49.2481 27.4757Z" fill="white"/>
<path d="M16.9095 18.3531C15.3139 18.3531 14.0926 18.8641 14.0926 18.8641L13.7542 20.8733C13.7542 20.8733 14.7646 20.4631 16.2895 20.4631C17.1539 20.4631 17.7878 20.5605 17.7878 21.2661C17.7878 21.6949 17.7113 21.8536 17.7113 21.8536C17.7113 21.8536 17.0288 21.7945 16.7113 21.7945C14.7021 21.7945 12.5874 22.6543 12.5874 25.2498C12.5874 27.2938 13.9721 27.7619 14.833 27.7619C16.4738 27.7619 17.1794 26.6959 17.2188 26.6913L17.1447 27.5835H19.1921L20.1052 21.163C20.1041 18.4423 17.7333 18.3531 16.9095 18.3531ZM17.4089 23.5789C17.4517 23.9729 17.1609 25.8107 15.7612 25.8107C15.0393 25.8107 14.8504 25.2556 14.8504 24.93C14.8504 24.2916 15.1969 23.5256 16.9025 23.5256C17.2999 23.5256 17.3417 23.5697 17.4089 23.5789Z" fill="white"/>
<path d="M22.281 27.7168C22.8048 27.7168 25.7989 27.8523 25.7989 24.7539C25.7989 21.8571 23.0272 22.4295 23.0272 21.265C23.0272 20.6891 23.478 20.5037 24.3053 20.5037C24.6321 20.5037 25.8951 20.6091 25.8951 20.6091L26.1894 18.5501C26.1894 18.5501 25.3725 18.3682 24.0434 18.3682C22.3204 18.3682 20.5742 19.0553 20.5742 21.411C20.5742 24.083 23.4873 23.8119 23.4873 24.9358C23.4873 25.6867 22.6738 25.7493 22.0458 25.7493C20.9612 25.7493 19.9867 25.375 19.9821 25.3924L19.6704 27.4294C19.7249 27.4479 20.3297 27.7168 22.281 27.7168Z" fill="white"/>
<path d="M68.5166 16.5049L68.0148 19.6253C68.0148 19.6253 67.1388 18.4145 65.7692 18.4145C63.6372 18.4145 61.8608 20.9891 61.8608 23.9474C61.8608 25.8593 62.8075 27.7283 64.7449 27.7283C66.1389 27.7283 66.9094 26.755 66.9094 26.755L66.8086 27.5858H69.0704L70.8479 16.5002L68.5166 16.5049ZM67.4366 22.5928C67.4366 23.8222 66.8283 25.4653 65.5676 25.4653C64.7287 25.4653 64.3382 24.762 64.3382 23.6554C64.3382 21.8489 65.147 20.6543 66.1678 20.6543C67.0067 20.6554 67.4366 21.2325 67.4366 22.5928Z" fill="white"/>
<path d="M4.31404 27.5962L5.73116 19.2268L5.93973 27.5962H7.54225L10.5341 19.2268L9.20734 27.5962H11.5874L13.4228 16.4991H9.74035L7.44608 23.3078L7.32673 16.4991H3.93398L2.07422 27.5962H4.31404Z" fill="white"/>
<path d="M40.1528 27.6136C40.8295 23.7562 40.9546 20.6219 42.571 21.1931C42.8538 19.7007 43.1261 19.1236 43.4355 18.491C43.4355 18.491 43.2906 18.4608 42.9859 18.4608C41.9465 18.4608 41.1748 19.8872 41.1748 19.8872L41.381 18.5779H39.2142L37.7646 27.6136H40.1528V27.6136Z" fill="white"/>
<path d="M54.6165 18.3531C53.0209 18.3531 51.7985 18.8641 51.7985 18.8641L51.4624 20.8733C51.4624 20.8733 52.4694 20.4631 53.9966 20.4631C54.8633 20.4631 55.4971 20.5605 55.4971 21.2661C55.4971 21.6949 55.4183 21.8536 55.4183 21.8536C55.4183 21.8536 54.7358 21.7945 54.4183 21.7945C52.4068 21.7945 50.2944 22.6543 50.2944 25.2498C50.2944 27.2938 51.6803 27.7619 52.54 27.7619C54.182 27.7619 54.8876 26.6959 54.9259 26.6913L54.8517 27.5835H56.9015L57.8146 21.163C57.8123 18.4423 55.4427 18.3531 54.6165 18.3531ZM55.1147 23.5789C55.1588 23.9729 54.8714 25.8107 53.467 25.8107C52.7451 25.8107 52.5586 25.2556 52.5586 24.93C52.5586 24.2916 52.905 23.5256 54.6084 23.5256C55.0058 23.5256 55.0475 23.5697 55.1147 23.5789Z" fill="white"/>
<path d="M59.6809 27.6136C60.3599 23.7562 60.4839 20.6219 62.1015 21.1931C62.3842 19.7007 62.6565 19.1236 62.9659 18.491C62.9659 18.491 62.8199 18.4608 62.5163 18.4608C61.4735 18.4608 60.7041 19.8872 60.7041 19.8872L60.9127 18.5779H58.7447L57.2939 27.6136H59.6809V27.6136Z" fill="white"/>
<path d="M26.1064 25.806C26.1064 27.1791 26.8735 27.7909 27.9592 27.7816C28.8074 27.7723 29.4714 27.5371 29.7043 27.4745L29.9951 25.4931C29.8352 25.4931 29.6012 25.5615 29.3938 25.5615C28.5861 25.5615 28.4957 25.1293 28.5479 24.8118L29.2014 20.769H30.432L30.7298 18.5755H29.5699L29.8074 17.2129" fill="#DCE5E5"/>
<path d="M31.5811 23.6971C31.5811 26.9925 32.61 27.7758 34.4582 27.7758C36.165 27.7758 36.9135 27.3923 36.9135 27.3923L37.3249 25.1444C37.3249 25.1444 36.0259 25.7191 34.8533 25.7191C32.3562 25.7191 32.7942 23.8524 32.7942 23.8524H37.5218C37.5218 23.8524 37.8278 22.3414 37.8278 21.725C37.8278 20.1896 37.063 18.3195 34.5103 18.3195C32.1708 18.3171 31.5811 20.8432 31.5811 23.6971ZM34.5207 20.404C35.8324 20.404 35.9865 21.8825 35.9865 22.0019H33.0074C33.0063 21.8501 33.2496 20.404 34.5207 20.404Z" fill="#DCE5E5"/>
<path d="M49.2485 27.4757L49.6645 24.9312C49.6645 24.9312 48.5243 25.5082 47.741 25.5082C46.091 25.5082 45.4293 24.2429 45.4293 22.8883C45.4293 20.1352 46.8488 18.6196 48.4293 18.6196C49.6147 18.6196 50.566 19.2882 50.566 19.2882L50.946 16.8189C50.946 16.8189 49.5347 16.2465 48.3262 16.2465C45.6402 16.2465 44.1675 18.5802 44.1675 22.966C44.1675 25.8721 44.4386 27.7932 47.2138 27.7932C47.9994 27.7932 49.2485 27.4757 49.2485 27.4757Z" fill="#DCE5E5"/>
<path d="M13.7547 20.8745C13.7547 20.8745 14.7651 20.4643 16.29 20.4643C17.1544 20.4643 17.7883 20.5616 17.7883 21.2673C17.7883 21.696 17.7118 21.8548 17.7118 21.8548C17.7118 21.8548 17.0293 21.7957 16.7118 21.7957C14.7026 21.7957 12.5879 22.6554 12.5879 25.251C12.5879 27.295 13.9726 27.7631 14.8335 27.7631C16.4743 27.7631 17.1799 26.6971 17.2193 26.6924L17.1452 27.5847H19.1926L20.1057 21.1642C20.1057 18.4412 17.735 18.3531 16.9111 18.3531M18.5507 23.5789C18.5936 23.9729 17.1625 25.8107 15.7628 25.8107C15.0409 25.8107 14.852 25.2556 14.852 24.93C14.852 24.2916 15.1985 23.5256 16.9041 23.5256C17.3004 23.5256 18.4823 23.5697 18.5507 23.5789Z" fill="#DCE5E5"/>
<path d="M19.6704 27.4282C19.726 27.4479 20.3297 27.7156 22.281 27.7156C22.8048 27.7156 25.7989 27.8512 25.7989 24.7527C25.7989 21.8559 23.0272 22.4283 23.0272 21.2638C23.0272 20.6879 23.478 20.5025 24.3053 20.5025C24.6321 20.5025 25.8951 20.608 25.8951 20.608L26.1894 18.5489C26.1894 18.5489 25.3725 18.367 24.0434 18.367C22.3204 18.367 21.7144 19.0541 21.7144 21.4098C21.7144 24.0818 23.4861 23.8107 23.4861 24.9346C23.4861 25.6855 22.6727 25.7481 22.0446 25.7481" fill="#DCE5E5"/>
<path d="M68.0148 19.6253C68.0148 19.6253 67.1388 18.4145 65.7692 18.4145C63.6371 18.4145 63.001 20.9891 63.001 23.9474C63.001 25.8593 62.8075 27.7283 64.7449 27.7283C66.1388 27.7283 66.9094 26.755 66.9094 26.755L66.8085 27.5858H69.0704L70.8479 16.5002M67.9232 22.5928C67.9232 23.8222 66.8282 25.4653 65.5675 25.4653C64.7286 25.4653 64.3381 24.762 64.3381 23.6554C64.3381 21.8489 65.1469 20.6543 66.1678 20.6543C67.0067 20.6554 67.9232 21.2325 67.9232 22.5928Z" fill="#DCE5E5"/>
<path d="M4.31422 27.5962L5.73134 19.2268L5.93991 27.5962H7.54243L10.5343 19.2268L9.20752 27.5962H11.5875L13.423 16.4991H10.7139L7.44626 23.3078L7.32691 16.4991H6.03377L2.07324 27.5962H4.31422Z" fill="#DCE5E5"/>
<path d="M37.7656 27.6136H40.1549C40.8316 23.7562 40.9568 20.6219 42.5732 21.1931C42.8559 19.7007 43.1282 19.1236 43.4376 18.491C43.4376 18.491 43.2928 18.4608 42.988 18.4608C41.9486 18.4608 41.1769 19.8872 41.1769 19.8872L41.3832 18.5779" fill="#DCE5E5"/>
<path d="M51.4629 20.8745C51.4629 20.8745 52.4699 20.4643 53.9971 20.4643C54.8638 20.4643 55.4976 20.5616 55.4976 21.2673C55.4976 21.696 55.4188 21.8548 55.4188 21.8548C55.4188 21.8548 54.7363 21.7957 54.4188 21.7957C52.4073 21.7957 50.2949 22.6554 50.2949 25.251C50.2949 27.295 51.6808 27.7631 52.5405 27.7631C54.1824 27.7631 54.8881 26.6971 54.9264 26.6924L54.8522 27.5847H56.902L57.8151 21.1642C57.8151 18.4412 55.4455 18.3531 54.6193 18.3531M56.2566 23.5789C56.3006 23.9729 54.8731 25.8107 53.4687 25.8107C52.7468 25.8107 52.5602 25.2556 52.5602 24.93C52.5602 24.2916 52.9067 23.5256 54.61 23.5256C55.0063 23.5256 56.1882 23.5697 56.2566 23.5789Z" fill="#DCE5E5"/>
<path d="M57.2935 27.6136H59.6816C60.3606 23.7562 60.4846 20.6219 62.1022 21.1931C62.3849 19.7007 62.6572 19.1236 62.9666 18.491C62.9666 18.491 62.8206 18.4608 62.517 18.4608C61.4741 18.4608 60.7047 19.8872 60.7047 19.8872L60.9133 18.5779" fill="#DCE5E5"/>
</svg>
