<svg width="155" height="155" viewBox="0 0 155 155" fill="none" xmlns="http://www.w3.org/2000/svg">
<path d="M77.5 155C120.302 155 155 120.302 155 77.5003C155 34.6982 120.302 0 77.5 0C34.6979 0 0 34.6982 0 77.5003C0 120.302 34.6979 155 77.5 155Z" fill="#DC3545"/>
<path d="M77 32C71.5669 32.0132 66.3601 34.1777 62.5189 38.0201C58.6776 41.8625 56.5146 47.07 56.5031 52.5031C56.5146 57.9373 58.6785 63.1457 62.5211 66.9883C66.3636 70.8309 71.572 72.9947 77.0062 73.0062C82.4405 72.9947 87.6488 70.8309 91.4914 66.9883C95.334 63.1457 97.4978 57.9373 97.5093 52.5031C97.4978 47.0689 95.334 41.8605 91.4914 38.0179C87.6488 34.1754 82.4342 32.0115 77 32ZM77 37.8589C78.9255 37.8515 80.8334 38.2252 82.6138 38.9584C84.3942 39.6917 86.0119 40.77 87.3737 42.1312C88.7355 43.4924 89.8145 45.1097 90.5485 46.8898C91.2825 48.6699 91.657 50.5776 91.6504 52.5031C91.6562 54.4275 91.2813 56.3341 90.5473 58.1131C89.8133 59.892 88.7348 61.5083 87.3737 62.8688C86.0126 64.2293 84.3959 65.3071 82.6166 66.0403C80.8374 66.7736 78.9306 67.1477 77.0062 67.1411C75.0818 67.1477 73.1751 66.7736 71.3958 66.0403C69.6165 65.3071 67.9998 64.2293 66.6388 62.8688C65.2777 61.5083 64.1991 59.892 63.4652 58.1131C62.7312 56.3341 62.3563 54.4275 62.362 52.5031C62.3555 50.5782 62.7297 48.6709 63.4634 46.8912C64.197 45.1116 65.2754 43.4946 66.6365 42.1334C67.9977 40.7723 69.6147 39.6938 71.3944 38.9602C73.174 38.2266 75.0751 37.8523 77 37.8589ZM77 78.8527C54.5854 78.8527 36 94.2939 36 114H41.8589C41.8589 98.0109 57.2378 84.7178 77.0062 84.7178C96.7684 84.7178 112.147 98.0109 112.147 114H118C118 94.2939 99.4208 78.8527 77 78.8527Z" fill="white"/>
</svg>
