<svg width="79" height="44" viewBox="0 0 79 44" fill="none" xmlns="http://www.w3.org/2000/svg">
<path d="M27.9058 34.942L31.9014 11.4794H38.2921L34.2937 34.942H27.9058Z" fill="white"/>
<path d="M57.3822 11.9854C56.116 11.5101 54.1322 11 51.6545 11C45.3398 11 40.8916 14.1822 40.8538 18.743C40.8182 22.1143 44.0293 23.995 46.4534 25.1173C48.9409 26.2673 49.7773 27.0008 49.7654 28.0277C49.7496 29.6004 47.7789 30.3189 45.942 30.3189C43.3841 30.3189 42.0252 29.9633 39.9265 29.0873L39.103 28.7143L38.2061 33.9668C39.6987 34.6216 42.4589 35.1891 45.3249 35.2185C52.0426 35.2185 56.4036 32.0727 56.4532 27.2025C56.4772 24.5335 54.7746 22.5023 51.0876 20.8278C48.8538 19.7424 47.4858 19.0181 47.5003 17.9191C47.5003 16.9439 48.6583 15.901 51.1601 15.901C53.25 15.8685 54.7637 16.3246 55.9432 16.7999L56.5159 17.0707L57.3822 11.9854Z" fill="white"/>
<path d="M73.8275 11.4794H68.8893C67.3595 11.4794 66.2147 11.8972 65.5428 13.4251L56.0518 34.927H62.7625C62.7625 34.927 63.8598 32.0359 64.108 31.4012C64.8413 31.4012 71.3605 31.4113 72.2925 31.4113C72.4837 32.2326 73.07 34.927 73.07 34.927H79L73.8275 11.4794ZM65.9926 26.6296C66.5211 25.2778 68.5387 20.0709 68.5387 20.0709C68.501 20.1334 69.0633 18.7125 69.3861 17.8316L69.8181 19.8545C69.8181 19.8545 71.0418 25.4551 71.2975 26.6295H65.9926V26.6296Z" fill="white"/>
<path d="M22.4812 11.4794L16.2244 27.4791L15.5578 24.2276C14.3931 20.4794 10.7641 16.4185 6.70703 14.3855L12.428 34.9046L19.1896 34.8968L29.2506 11.4794H22.4812Z" fill="white"/>
<path d="M10.3866 11.4794H0.0815624L0 11.9676C8.01719 13.9097 13.3221 18.603 15.5242 24.2421L13.2834 13.4602C12.8966 11.9745 11.7746 11.5312 10.3866 11.4794Z" fill="white"/>
</svg>
